<svg width="300" height="253" viewBox="0 0 300 253" fill="none" xmlns="http://www.w3.org/2000/svg">
<g clip-path="url(#clip0_2764_273)">
<path fill-rule="evenodd" clip-rule="evenodd" d="M164.245 125.955C190.464 101.101 212.707 111.765 221.847 127.596C229.253 140.425 258.325 203.298 267.661 219.469C276.996 235.638 289.22 246.417 300 235.638C273.965 261.673 251.704 252.651 241.719 237.279C216.105 261.569 194.375 252.096 184.777 236.729C158.126 262.817 135.529 252.248 126.177 236.051C123.794 231.923 113.09 208.049 100.435 179.547C103.695 164.574 106.073 148.528 108.064 132.535C108.368 130.093 108.66 127.654 108.948 125.22C127.392 165.688 147.925 210.87 153.126 219.881C162.261 235.703 174.16 246.361 184.766 236.713C184.544 236.357 184.327 236 184.119 235.638C177.895 224.858 144.529 149.155 138.305 138.376C132.636 128.557 119.407 118.739 108.948 125.214C108.968 125.042 108.988 124.87 109.008 124.698C133.724 102.299 154.723 111.33 164.245 125.955ZM194.898 138.376C189.005 128.169 174.944 117.964 164.315 126.06C164.642 126.566 164.955 127.079 165.254 127.596C172.661 140.425 201.732 203.299 211.068 219.469C219.903 234.771 231.322 245.243 241.658 237.186C241.329 236.677 241.013 236.161 240.711 235.638C234.487 224.858 201.121 149.155 194.898 138.376ZM18.3813 58.1854C45.3301 31.2369 68.3339 42.0162 77.6694 58.1854C78.1243 58.9732 78.7709 60.2141 79.5894 61.8514C76.0022 77.8762 73.3988 95.5852 71.0884 113.388C60.8711 90.4483 52.7569 72.4934 50.7202 68.9656C44.4966 58.1863 29.1609 47.4064 18.3813 58.1854Z" fill="#1A1A1A"/>
<path d="M145.77 40.0334C134.324 40.0334 137.821 24.334 141.001 16.4843C141.001 10.8326 140.895 3.80731 136.125 3.02234C90.8198 15.0112 127.346 251.975 39.1178 251.975C-12.4688 251.975 -4.45565 193.102 14.6213 193.102C33.6973 193.102 28.1342 219.385 19.3914 228.426C17.858 234.077 23.545 247.259 28.3151 247.259C92.6968 247.259 52.123 0 130.812 0C159.426 0 160.077 40.0334 145.77 40.0334Z" fill="#1A1A1A"/>
</g>
<defs>
<clipPath id="clip0_2764_273">
<rect width="300" height="253" fill="white"/>
</clipPath>
</defs>
</svg>
