<svg width="16" height="16" viewBox="0 0 16 16" fill="none" xmlns="http://www.w3.org/2000/svg">
<path fill-rule="evenodd" clip-rule="evenodd" d="M7.59594 0.167368C7.8191 -0.0557892 8.1809 -0.0557892 8.40406 0.167368L15.8326 7.59594C15.9398 7.7031 16 7.84845 16 8C16 8.15155 15.9398 8.2969 15.8326 8.40406L8.40406 15.8326C8.1809 16.0558 7.8191 16.0558 7.59594 15.8326C7.37278 15.6095 7.37278 15.2477 7.59594 15.0245L14.049 8.57144L0.571434 8.57156C0.255842 8.57157 2.86105e-06 8.31573 0 8.00014C-2.861e-06 7.68455 0.255832 7.42871 0.571423 7.42871L14.049 7.42858L7.59594 0.97549C7.37278 0.752333 7.37278 0.390524 7.59594 0.167368Z" fill="#E8E7E3"/>
</svg>
